<mxfile host="app.diagrams.net" modified="2023-11-07T14:52:02.822Z" agent="Mozilla/5.0 (X11; Linux x86_64) AppleWebKit/537.36 (KHTML, like Gecko) Chrome/118.0.0.0 Safari/537.36" etag="Mqy8m_afo8rqd_YSD9ax" version="22.0.8" type="google">
  <diagram name="005-semantic-modeling" id="O0EzCrE9_i2seC9WDiSg">
    <mxGraphModel grid="1" page="1" gridSize="10" guides="1" tooltips="1" connect="1" arrows="1" fold="1" pageScale="1" pageWidth="827" pageHeight="1169" math="0" shadow="0">
      <root>
        <mxCell id="0" />
        <mxCell id="1" parent="0" />
        <mxCell id="VSZ_r1YbwB4cjB5XSmfl-58" value="&lt;div&gt;&lt;i&gt;This work is licensed under a&lt;/i&gt;&lt;/div&gt;&lt;div&gt;&lt;b&gt;&lt;i&gt;Creative Commons Attribution 4.0 International License&lt;/i&gt;&lt;/b&gt;&lt;/div&gt;" style="text;html=1;strokeColor=none;fillColor=none;align=center;verticalAlign=middle;whiteSpace=wrap;rounded=0;fontSize=20;fontFamily=Architects Daughter;" vertex="1" parent="1">
          <mxGeometry x="65" y="680" width="530" height="60" as="geometry" />
        </mxCell>
        <mxCell id="avT5lPnUYxmwpW9dVsxR-1" value="&lt;b&gt;Identify &lt;br&gt;new use cases&lt;/b&gt;" style="ellipse;whiteSpace=wrap;html=1;aspect=fixed;sketch=1;curveFitting=1;jiggle=2;fillColor=#ffe6cc;strokeColor=#d79b00;fillStyle=zigzag;" vertex="1" parent="1">
          <mxGeometry x="170" y="330" width="80" height="80" as="geometry" />
        </mxCell>
        <mxCell id="avT5lPnUYxmwpW9dVsxR-2" value="&lt;b&gt;Select the&amp;nbsp;&lt;br&gt;&amp;nbsp;next use case&lt;/b&gt;" style="ellipse;whiteSpace=wrap;html=1;aspect=fixed;sketch=1;curveFitting=1;jiggle=2;fillColor=#ffe6cc;strokeColor=#d79b00;fillStyle=zigzag;" vertex="1" parent="1">
          <mxGeometry x="290" y="210" width="80" height="80" as="geometry" />
        </mxCell>
        <mxCell id="avT5lPnUYxmwpW9dVsxR-3" value="&lt;b&gt;Extend conceptual model&lt;/b&gt;" style="ellipse;whiteSpace=wrap;html=1;aspect=fixed;sketch=1;curveFitting=1;jiggle=2;fillColor=#ffe6cc;strokeColor=#d79b00;fillStyle=zigzag;" vertex="1" parent="1">
          <mxGeometry x="410" y="330" width="80" height="80" as="geometry" />
        </mxCell>
        <mxCell id="avT5lPnUYxmwpW9dVsxR-4" value="&lt;b&gt;Implement&lt;br&gt;the use case&lt;/b&gt;" style="ellipse;whiteSpace=wrap;html=1;aspect=fixed;sketch=1;curveFitting=1;jiggle=2;fillColor=#ffe6cc;strokeColor=#d79b00;fillStyle=zigzag;" vertex="1" parent="1">
          <mxGeometry x="290" y="460" width="80" height="80" as="geometry" />
        </mxCell>
        <mxCell id="avT5lPnUYxmwpW9dVsxR-5" value="Data product&lt;br&gt;team" style="shape=umlActor;verticalLabelPosition=bottom;verticalAlign=top;html=1;outlineConnect=0;sketch=1;curveFitting=1;jiggle=2;fillStyle=solid;fillColor=#009999;strokeColor=#000000;" vertex="1" parent="1">
          <mxGeometry x="315" y="550" width="30" height="60" as="geometry" />
        </mxCell>
        <mxCell id="avT5lPnUYxmwpW9dVsxR-6" value="Federated &lt;br&gt;modeling &lt;br&gt;team" style="shape=umlActor;verticalLabelPosition=bottom;verticalAlign=top;html=1;outlineConnect=0;sketch=1;curveFitting=1;jiggle=2;fillColor=#FF0000;strokeColor=#000000;fillStyle=solid;" vertex="1" parent="1">
          <mxGeometry x="500" y="330" width="30" height="60" as="geometry" />
        </mxCell>
        <mxCell id="avT5lPnUYxmwpW9dVsxR-7" value="Federated &lt;br&gt;governance&lt;br&gt;team" style="shape=umlActor;verticalLabelPosition=bottom;verticalAlign=top;html=1;outlineConnect=0;sketch=1;curveFitting=1;jiggle=2;fillColor=#009900;fillStyle=solid;" vertex="1" parent="1">
          <mxGeometry x="315" y="90" width="30" height="60" as="geometry" />
        </mxCell>
        <mxCell id="avT5lPnUYxmwpW9dVsxR-8" value="Data product&lt;br&gt;teams" style="shape=umlActor;verticalLabelPosition=bottom;verticalAlign=top;html=1;outlineConnect=0;sketch=1;curveFitting=1;jiggle=2;fillColor=#009999;strokeColor=#000000;fillStyle=solid;" vertex="1" parent="1">
          <mxGeometry x="130" y="340" width="30" height="60" as="geometry" />
        </mxCell>
        <mxCell id="avT5lPnUYxmwpW9dVsxR-9" value="" style="html=1;shadow=0;dashed=0;align=center;verticalAlign=middle;shape=mxgraph.arrows2.bendArrow;dy=15;dx=38;notch=0;arrowHead=55;rounded=1;sketch=1;curveFitting=1;jiggle=2;fillColor=#f5f5f5;fontColor=#333333;strokeColor=#666666;fillStyle=zigzag;" vertex="1" parent="1">
          <mxGeometry x="190" y="220" width="90" height="100" as="geometry" />
        </mxCell>
        <mxCell id="avT5lPnUYxmwpW9dVsxR-10" value="" style="html=1;shadow=0;dashed=0;align=center;verticalAlign=middle;shape=mxgraph.arrows2.bendArrow;dy=15;dx=38;notch=0;arrowHead=55;rounded=1;rotation=90;sketch=1;curveFitting=1;jiggle=2;fillColor=#f5f5f5;fontColor=#333333;strokeColor=#666666;fillStyle=zigzag;" vertex="1" parent="1">
          <mxGeometry x="380" y="220" width="90" height="100" as="geometry" />
        </mxCell>
        <mxCell id="avT5lPnUYxmwpW9dVsxR-11" value="" style="html=1;shadow=0;dashed=0;align=center;verticalAlign=middle;shape=mxgraph.arrows2.bendArrow;dy=15;dx=38;notch=0;arrowHead=55;rounded=1;rotation=-180;sketch=1;curveFitting=1;jiggle=2;fillColor=#f5f5f5;fontColor=#333333;strokeColor=#666666;fillStyle=zigzag;" vertex="1" parent="1">
          <mxGeometry x="380" y="420" width="90" height="100" as="geometry" />
        </mxCell>
        <mxCell id="avT5lPnUYxmwpW9dVsxR-12" value="" style="html=1;shadow=0;dashed=0;align=center;verticalAlign=middle;shape=mxgraph.arrows2.bendArrow;dy=15;dx=38;notch=0;arrowHead=55;rounded=1;rotation=-90;sketch=1;curveFitting=1;jiggle=2;fillColor=#f5f5f5;fontColor=#333333;strokeColor=#666666;fillStyle=zigzag;" vertex="1" parent="1">
          <mxGeometry x="180" y="420" width="90" height="100" as="geometry" />
        </mxCell>
        <mxCell id="avT5lPnUYxmwpW9dVsxR-13" value="&lt;font style=&quot;font-size: 22px;&quot; data-font-src=&quot;https://fonts.googleapis.com/css?family=Caveat&quot; face=&quot;Caveat&quot;&gt;&lt;b&gt;Use cases-driven semantic modeling&lt;/b&gt;&lt;/font&gt;" style="text;html=1;strokeColor=none;fillColor=none;align=center;verticalAlign=middle;whiteSpace=wrap;rounded=0;" vertex="1" parent="1">
          <mxGeometry x="265" y="310" width="130" height="120" as="geometry" />
        </mxCell>
      </root>
    </mxGraphModel>
  </diagram>
</mxfile>
